<svg xmlns="http://www.w3.org/2000/svg" xmlns:xlink="http://www.w3.org/1999/xlink" version="1.1" x="0px" y="0px" viewBox="0 0 150 150" style="enable-background:new 0 0 150 150;" xml:space="preserve"><g><path d="M96,54.8c1.1,0,2-0.9,2-2v-1.5c0-1.1-0.9-2-2-2s-2,0.9-2,2v1.5C94,53.9,94.9,54.8,96,54.8z"></path><path d="M96,63.6c1.1,0,2-0.9,2-2V60c0-1.1-0.9-2-2-2s-2,0.9-2,2v1.5C94,62.7,94.9,63.6,96,63.6z"></path><path d="M96,72.3c1.1,0,2-0.9,2-2v-1.5c0-1.1-0.9-2-2-2s-2,0.9-2,2v1.5C94,71.4,94.9,72.3,96,72.3z"></path><path d="M103.6,54.8c1.1,0,2-0.9,2-2v-1.5c0-1.1-0.9-2-2-2s-2,0.9-2,2v1.5C101.6,53.9,102.5,54.8,103.6,54.8z"></path><path d="M101.6,61.6c0,1.1,0.9,2,2,2s2-0.9,2-2V60c0-1.1-0.9-2-2-2s-2,0.9-2,2V61.6z"></path><path d="M101.6,70.3c0,1.1,0.9,2,2,2s2-0.9,2-2v-1.5c0-1.1-0.9-2-2-2s-2,0.9-2,2V70.3z"></path><path d="M111.2,54.8c1.1,0,2-0.9,2-2v-1.5c0-1.1-0.9-2-2-2s-2,0.9-2,2v1.5C109.2,53.9,110.1,54.8,111.2,54.8z"></path><path d="M109.2,61.6c0,1.1,0.9,2,2,2s2-0.9,2-2V60c0-1.1-0.9-2-2-2s-2,0.9-2,2V61.6z"></path><path d="M109.2,70.3c0,1.1,0.9,2,2,2s2-0.9,2-2v-1.5c0-1.1-0.9-2-2-2s-2,0.9-2,2V70.3z"></path><path d="M133,76h-5.9V43.9c0-6-4.8-10.8-10.7-10.8h-12.8c-1.1,0-2,0.9-2,2v6.2H96c-1.1,0-2,0.9-2,2s0.9,2,2,2h15.3c1.1,0,2-0.9,2-2   s-0.9-2-2-2h-5.6v-4.2h10.8c3.7,0,6.7,3.1,6.7,6.8V76H17c-1.1,0-2,0.9-2,2V88c0,10.6,7.9,19.4,18,20.7l-1.7,5.6   c-0.3,1.1,0.3,2.2,1.3,2.5c0.2,0.1,0.4,0.1,0.6,0.1c0.9,0,1.6-0.6,1.9-1.4l2-6.6h75.8l2,6.6c0.3,0.9,1.1,1.4,1.9,1.4   c0.2,0,0.4,0,0.6-0.1c1.1-0.3,1.6-1.4,1.3-2.5l-1.7-5.6c10.1-1.3,18-10.1,18-20.7V78C135,76.9,134.1,76,133,76z M131,88   c0,9.3-7.5,16.9-16.6,16.9H35.6C26.5,104.9,19,97.3,19,88V80h112V88z"></path></g></svg>