<svg xmlns="http://www.w3.org/2000/svg" xmlns:xlink="http://www.w3.org/1999/xlink" version="1.1" x="0px" y="0px" viewBox="0 0 512 512" enable-background="new 0 0 512 512" xml:space="preserve"><path d="M502.1,2H375.6c-4.4,0-7.9,3.6-7.9,7.9v110.2L236.7,4c-3-2.7-7.5-2.7-10.5,0L4.7,200.3c-2.5,2.2-3.3,5.7-2.2,8.8  c1.2,3.1,4.1,5.1,7.4,5.1h46.7v264.1c0,17.5,14.2,31.8,31.8,31.8h413.7c4.4,0,7.9-3.6,7.9-7.9V9.9C510,5.6,506.4,2,502.1,2z   M231.4,20.5l136.3,120.8v57H64.5H30.9L231.4,20.5z M72.5,478.2V214.2h295.2v279.9h-71.1v-140c0-4.4-3.6-7.9-7.9-7.9H174.2  c-4.4,0-7.9,3.6-7.9,7.9v140H88.4C79.6,494.1,72.5,487,72.5,478.2z M182.1,494.1v-132h98.6v132H182.1z M383.6,494.1V206.2v-68.5  V17.9h110.6v25.9h-34.2c-4.4,0-7.9,3.6-7.9,7.9s3.6,7.9,7.9,7.9h34.2v35.2h-34.2c-4.4,0-7.9,3.6-7.9,7.9s3.6,7.9,7.9,7.9h34.2v35.2  h-34.2c-4.4,0-7.9,3.6-7.9,7.9c0,4.4,3.6,7.9,7.9,7.9h34.2V197h-34.2c-4.4,0-7.9,3.6-7.9,7.9c0,4.4,3.6,7.9,7.9,7.9h34.2v35.2h-34.2  c-4.4,0-7.9,3.6-7.9,7.9c0,4.4,3.6,7.9,7.9,7.9h34.2v35.2h-34.2c-4.4,0-7.9,3.6-7.9,7.9c0,4.4,3.6,7.9,7.9,7.9h34.2v35.2h-34.2  c-4.4,0-7.9,3.6-7.9,7.9c0,4.4,3.6,7.9,7.9,7.9h34.2v35.2h-34.2c-4.4,0-7.9,3.6-7.9,7.9s3.6,7.9,7.9,7.9h34.2v35.2h-34.2  c-4.4,0-7.9,3.6-7.9,7.9c0,4.4,3.6,7.9,7.9,7.9h34.2v25.9H383.6z"></path></svg>